<svg xmlns="http://www.w3.org/2000/svg" viewBox="0 0 24 24" role="img" aria-label="WhatsApp">
  <path fill="#fff" d="M12 2a9.5 9.5 0 0 0-8.18 14.33L2.5 21.5l5.3-1.28A9.5 9.5 0 1 0 12 2Zm0 2a7.5 7.5 0 1 1-3.82 13.95l-.34-.2-2.5.61.63-2.38-.23-.36A7.5 7.5 0 0 1 12 4Z"/>
  <path fill="#fff" d="M8.15 7.25c.2-.43.4-.44.72-.45h.61c.2 0 .43.08.55.43l.75 1.82c.1.28.06.48-.1.69l-.55.67c-.17.2-.14.39-.02.59.52.9 1.2 1.62 2.05 2.16.22.14.42.16.6-.04l.74-.86c.2-.23.42-.27.7-.16l1.74.82c.28.14.47.2.54.34.07.13.07.76-.18 1.48-.25.72-1.44 1.38-2.01 1.46-.52.08-1.18.11-1.91-.12-.44-.14-1-.33-1.72-.64-3.03-1.31-5.01-4.36-5.16-4.56-.15-.2-1.23-1.64-1.23-3.13 0-1.49.78-2.22 1.06-2.53Z" transform="translate(2.1 1.2) scale(.82)"/>
</svg>
